<?xml version="1.0" encoding="UTF-8" standalone="no"?>
<svg
   xmlns:dc="http://purl.org/dc/elements/1.1/"
   xmlns:cc="http://creativecommons.org/ns#"
   xmlns:rdf="http://www.w3.org/1999/02/22-rdf-syntax-ns#"
   xmlns:svg="http://www.w3.org/2000/svg"
   xmlns="http://www.w3.org/2000/svg"
   xmlns:sodipodi="http://sodipodi.sourceforge.net/DTD/sodipodi-0.dtd"
   xmlns:inkscape="http://www.inkscape.org/namespaces/inkscape"
   width="155.91"
   height="311.785"
   fill="none"
   version="1.1"
   id="svg16"
   sodipodi:docname="bgCircle.svg"
   inkscape:version="1.0.2-2 (e86c870879, 2021-01-15)">
  <metadata
     id="metadata22">
    <rdf:RDF>
      <cc:Work
         rdf:about="">
        <dc:format>image/svg+xml</dc:format>
        <dc:type
           rdf:resource="http://purl.org/dc/dcmitype/StillImage" />
        <dc:title></dc:title>
      </cc:Work>
    </rdf:RDF>
  </metadata>
  <defs
     id="defs20" />
  <sodipodi:namedview
     pagecolor="#ffffff"
     bordercolor="#666666"
     borderopacity="1"
     objecttolerance="10"
     gridtolerance="10"
     guidetolerance="10"
     inkscape:pageopacity="0"
     inkscape:pageshadow="2"
     inkscape:window-width="2560"
     inkscape:window-height="1373"
     id="namedview18"
     showgrid="false"
     inkscape:zoom="1.2364289"
     inkscape:cx="188.20285"
     inkscape:cy="292.65068"
     inkscape:window-x="-9"
     inkscape:window-y="-9"
     inkscape:window-maximized="1"
     inkscape:current-layer="svg16" />
  <path
     d="M45.672 45.665C75.116 16.221 114.268.007 155.91 0v1.994C71.043 1.994 2.008 71.03 2.008 155.896c0 41.11 16.01 79.762 45.071 108.824 29.062 29.062 67.72 45.078 108.824 45.07v1.995c-41.649 0-80.794-16.221-110.238-45.665C16.221 236.676.007 197.524 0 155.882c.007-41.627 16.228-80.773 45.672-110.217z"
     fill="#fff"
     id="path2"
     style="fill:#000000;fill-opacity:1" />
  <path
     d="M53.302 53.295c26.29-26.29 62.578-42.568 102.601-42.568v1.994c-78.942 0-143.168 64.227-143.175 143.175 0 78.942 64.233 143.175 143.175 143.175v1.994c-80.045 0-145.17-65.124-145.176-145.176.007-40.015 16.292-76.311 42.575-102.594z"
     fill="#4643c3"
     id="path4" />
  <path
     d="M60.84 60.832c25.391-25.392 59.156-39.371 95.07-39.378v1.994c-35.384 0-68.639 13.781-93.649 38.791-25.018 25.018-38.792 58.28-38.792 93.65 0 35.384 13.781 68.639 38.792 93.649 25.017 25.018 58.28 38.792 93.65 38.792v1.994c-35.908 0-69.68-13.986-95.072-39.378-25.392-25.393-39.371-59.157-39.378-95.071.007-35.886 13.986-69.65 39.378-95.043z"
     fill="#fff"
     id="path6"
     style="fill:#000000;fill-opacity:1" />
  <path
     d="M68.47 68.463c22.4-22.402 53.33-36.276 87.44-36.276v1.995c-67.119 0-121.721 54.603-121.721 121.72 0 67.12 54.602 121.723 121.721 121.723v1.994c-68.222 0-123.722-55.501-123.715-123.716 0-34.111 13.873-65.04 36.274-87.44z"
     fill="#4643c3"
     id="path8" />
  <path
     d="M76.05 76.043c20.456-20.457 48.705-33.136 79.86-33.136v1.994c-61.207 0-110.995 49.788-110.988 110.988 0 61.207 49.788 110.995 110.988 110.988v1.994c-62.296 0-112.989-50.693-112.989-112.99-.007-31.133 12.672-59.382 33.128-79.838z"
     fill="#fff"
     id="path10"
     style="fill:#000000;fill-opacity:1" />
  <path
     d="M83.63 83.623c18.518-18.52 44.087-29.989 72.273-29.989v1.994c-55.282 0-100.26 44.98-100.26 100.26 0 26.786 10.43 51.966 29.365 70.903 18.936 18.936 44.117 29.366 70.902 29.366v1.994c-27.316.007-52.998-10.642-72.309-29.953-19.31-19.311-29.953-45-29.953-72.31 0-28.184 11.462-53.746 29.981-72.265z"
     fill="#4643c3"
     id="path12" />
  <path
     d="M91.21 91.203c16.574-16.575 39.456-26.842 64.7-26.842v1.994c-49.37 0-89.534 40.164-89.534 89.534 0 49.37 40.164 89.534 89.534 89.534v1.994c-50.473 0-91.535-41.062-91.535-91.535 0-25.215 10.26-48.104 26.834-64.68z"
     fill="#fff"
     id="path14"
     style="fill:#000000;fill-opacity:1" />
</svg>
