<svg width="194" height="50" viewBox="0 0 194 50" fill="none" xmlns="http://www.w3.org/2000/svg">
<path d="M16.3199 29.25L32.7599 45.61L49.21 29.25L65.6499 45.61L82.0899 29.25L96.5899 43.68L111.1 29.25L127.54 45.61L143.99 29.25L160.43 45.61L176.87 29.25L193.19 45.49L191.37 47.31L176.87 32.88L160.43 49.24L143.99 32.88L127.54 49.24L111.1 32.88L96.5899 47.32L82.0899 32.88L65.6499 49.24L49.21 32.88L32.7599 49.24L16.3199 32.88L1.80994 47.31L-6.10352e-05 45.49L16.3199 29.25Z" fill="white"/>
<path d="M16.3201 0L32.7601 16.36L49.2101 0L65.6501 16.36L82.0901 0L95.1301 12.98L95.1401 16.62L82.0901 3.63L65.6501 19.99L49.2101 3.63L32.7601 19.99L16.3201 3.63L1.81012 18.06L0.00012207 16.23L16.3201 0Z" fill="#4643C3"/>
</svg>
