<svg width="100" height="100" viewBox="0 0 100 100" fill="none" xmlns="http://www.w3.org/2000/svg">
<circle r="50" transform="matrix(-1 0 0 1 50 50)" fill="#4643C3"/>
<path d="M53.2168 46.7831C51.5103 45.0774 49.1963 44.1191 46.7835 44.1191C44.3707 44.1191 42.0566 45.0774 40.3501 46.7831L33.9147 53.2165C32.2082 54.923 31.2495 57.2375 31.2495 59.6508C31.2495 62.0642 32.2082 64.3787 33.9147 66.0852C35.6212 67.7917 37.9357 68.7504 40.3491 68.7504C42.7624 68.7504 45.077 67.7917 46.7835 66.0852L50.0001 62.8685" stroke="white" stroke-width="3" stroke-linecap="round" stroke-linejoin="round"/>
<path d="M46.7837 53.2163C48.4902 54.9221 50.8042 55.8803 53.217 55.8803C55.6298 55.8803 57.9439 54.9221 59.6504 53.2163L66.0858 46.783C67.7923 45.0765 68.751 42.762 68.751 40.3486C68.751 37.9352 67.7923 35.6207 66.0858 33.9142C64.3793 32.2077 62.0648 31.249 59.6514 31.249C57.238 31.249 54.9235 32.2077 53.217 33.9142L50.0004 37.1309" stroke="white" stroke-width="3" stroke-linecap="round" stroke-linejoin="round"/>
</svg>
